<?xml version="1.0" standalone="no"?>
<!DOCTYPE svg PUBLIC "-//W3C//DTD SVG 20010904//EN"
 "http://www.w3.org/TR/2001/REC-SVG-20010904/DTD/svg10.dtd">
<svg version="1.0" xmlns="http://www.w3.org/2000/svg"
 width="925.000000pt" height="320.000000pt" viewBox="0 0 925.000000 320.000000"
 preserveAspectRatio="xMidYMid meet">

<g transform="translate(0.000000,320.000000) scale(0.100000,-0.100000)"
fill="#000000" stroke="none">
<path d="M1864 2777 c-3 -8 -4 -43 -2 -77 l3 -64 -105 -13 -104 -13 -62 61
-62 62 -66 -18 c-37 -10 -73 -23 -81 -29 -12 -9 -2 -47 64 -245 46 -138 86
-240 96 -247 96 -71 923 -71 1019 -1 12 9 37 91 77 252 32 132 59 243 59 247
0 9 -129 48 -156 48 -11 0 -46 -27 -79 -61 l-60 -60 -50 6 c-27 3 -71 8 -96
11 l-45 5 0 72 1 72 -173 3 c-139 2 -173 0 -178 -11z m331 -72 l0 -70 -47 3
c-30 2 -48 0 -48 -7 0 -7 32 -11 88 -12 48 0 105 -3 127 -7 39 -7 40 -8 37
-47 -6 -74 -8 -76 -65 -70 -154 14 -178 14 -172 5 3 -6 22 -10 41 -10 l34 0 0
-50 0 -50 -37 0 c-69 0 -24 -12 64 -16 48 -3 93 -7 98 -8 6 -2 9 -24 7 -51
l-4 -48 -76 7 c-41 3 -99 6 -129 6 l-53 0 -2 48 -2 47 -3 -46 -4 -46 -121 -8
c-66 -4 -124 -3 -128 2 -4 4 -10 25 -13 45 l-6 37 45 7 c30 4 49 2 59 -6 19
-16 27 -10 15 10 -7 12 -25 12 -120 2 -62 -7 -117 -14 -122 -15 -6 -1 -17 18
-25 42 -19 54 -17 56 96 71 192 24 171 26 171 -12 0 -41 10 -78 20 -78 4 0 4
17 -1 38 -12 50 -11 52 6 46 17 -7 19 4 6 25 -7 11 -27 12 -93 7 l-84 -7 -11
55 c-11 65 -18 60 102 72 39 4 64 9 58 11 -23 8 -14 33 12 33 16 0 25 6 25 15
0 18 -12 19 -28 3 -17 -17 -24 -6 -29 46 l-5 45 38 3 c22 2 93 4 159 3 l120 0
0 -70z m-646 -49 c7 -31 13 -59 14 -62 2 -7 -125 -47 -128 -41 -6 7 -35 103
-35 113 0 12 117 55 131 48 3 -2 11 -28 18 -58z m1080 48 c41 -12 51 -19 47
-32 -3 -9 -10 -39 -17 -65 -9 -36 -15 -47 -27 -42 -8 3 -35 10 -61 17 -25 6
-47 12 -49 14 -2 1 2 29 9 63 13 69 15 70 98 45z m-114 -53 c-8 -49 -13 -53
-55 -45 l-31 7 42 43 c24 24 45 42 47 39 2 -2 1 -22 -3 -44z m-895 -51 c-27
-17 -39 -11 -49 28 -17 57 -14 59 27 19 31 -31 34 -39 22 -47z m960 -31 c25
-7 49 -15 53 -19 8 -7 0 -80 -12 -98 -4 -6 -36 -4 -96 9 -49 10 -107 21 -127
24 -34 5 -38 9 -38 34 0 16 3 42 6 58 l6 30 81 -13 c45 -7 102 -18 127 -25z
m-851 -13 c16 -65 14 -76 -11 -76 -23 0 -190 -33 -225 -44 -16 -5 -22 1 -32
35 -7 23 -15 47 -17 54 -4 9 13 19 53 30 50 15 173 40 209 44 7 1 17 -19 23
-43z m635 -81 c60 -8 110 -16 113 -18 4 -4 -13 -86 -19 -92 -2 -3 -242 20
-255 24 -2 1 -3 24 -3 51 0 59 -6 58 164 35z m240 -77 c-2 -63 -5 -66 -68 -55
-52 10 -56 12 -56 38 0 15 4 39 9 52 9 24 11 24 63 12 52 -12 53 -12 52 -47z
m-995 30 c26 -73 26 -74 -39 -91 l-59 -15 -15 46 c-9 25 -14 47 -12 50 4 3 93
29 109 31 4 1 11 -9 16 -21z m165 -109 c8 -50 3 -59 -37 -59 -18 -1 -61 -7
-97 -15 -95 -21 -98 -20 -111 25 -7 22 -10 42 -8 44 5 4 206 44 230 45 12 1
18 -11 23 -40z m749 14 c55 -12 67 -18 63 -31 -3 -10 -8 -30 -12 -45 -5 -23
-11 -27 -28 -23 -22 5 -113 21 -178 31 -40 6 -42 11 -32 65 l7 32 56 -7 c31
-3 87 -13 124 -22z m-78 -93 c91 -16 109 -25 74 -39 -149 -56 -939 -49 -939 8
0 10 89 27 215 41 108 12 563 5 650 -10z"/>
<path d="M1940 2628 c0 -5 17 -8 37 -8 20 0 33 3 29 8 -4 4 -21 7 -37 7 -16 0
-29 -3 -29 -7z"/>
<path d="M2060 2500 c0 -5 9 -10 21 -10 11 0 17 5 14 10 -3 6 -13 10 -21 10
-8 0 -14 -4 -14 -10z"/>
<path d="M2003 2383 c9 -2 23 -2 30 0 6 3 -1 5 -18 5 -16 0 -22 -2 -12 -5z"/>
<path d="M2076 2332 c-3 -6 -1 -14 5 -17 15 -10 25 3 12 16 -7 7 -13 7 -17 1z"/>
<path d="M2058 1614 c-3 -340 -2 -370 15 -386 15 -16 45 -18 327 -18 l310 0 0
345 0 344 -285 3 -284 3 -40 39 -41 40 -2 -370z m250 190 c51 -25 112 -90 112
-120 0 -7 6 -14 12 -16 8 -3 4 -9 -10 -17 -19 -10 -22 -20 -22 -72 0 -52 2
-60 18 -57 9 2 16 11 14 20 -1 10 9 35 23 57 42 68 99 65 132 -7 15 -30 17
-55 13 -137 l-5 -100 -50 -3 c-28 -2 -91 6 -145 19 -53 13 -127 23 -166 23
l-71 0 -6 201 c-4 110 -4 209 -1 221 5 17 12 20 52 17 26 -2 71 -15 100 -29z
m309 -520 c-3 -3 -12 -4 -19 -1 -8 3 -5 6 6 6 11 1 17 -2 13 -5z"/>
<path d="M2217 1814 c-3 -3 10 -25 28 -50 18 -24 36 -57 40 -74 5 -23 12 -30
31 -30 39 0 30 54 -20 108 -24 27 -71 54 -79 46z"/>
<path d="M2170 1735 l0 -75 30 0 c27 0 30 3 30 33 0 37 -34 117 -50 117 -6 0
-10 -29 -10 -75z"/>
<path d="M2480 1541 l0 -41 41 0 40 0 -3 38 c-3 35 -5 37 -40 40 l-38 3 0 -40z"/>
<path d="M1988 1934 l-38 -34 -280 0 -280 0 0 -345 0 -345 309 0 c249 0 311 3
320 14 8 9 11 117 9 379 l-3 365 -37 -34z m-41 -126 c-2 -9 -19 -12 -46 -10
-36 3 -46 -1 -71 -28 -16 -17 -31 -44 -35 -59 -7 -32 -33 -49 -41 -27 -10 25
57 114 96 129 31 11 102 7 97 -5z m-201 -139 c3 -6 19 -9 35 -5 30 6 45 -6 33
-26 -4 -7 -8 -66 -8 -133 l-1 -120 -38 -3 c-44 -4 -71 13 -58 35 4 8 3 37 -2
65 -7 34 -7 65 1 96 7 33 7 51 0 59 -7 9 -7 17 2 28 15 18 26 19 36 4z m-164
-40 c-1 -8 10 -22 24 -29 27 -15 50 -48 40 -58 -4 -3 -12 0 -18 6 -16 16 -120
15 -137 0 -10 -11 -12 -9 -9 7 2 10 17 28 33 40 19 13 29 27 27 38 -3 15 1 18
20 15 14 -2 22 -9 20 -19z m36 -91 c16 -20 2 -66 -25 -88 -19 -15 -29 -17 -48
-8 -34 15 -59 81 -38 101 11 12 100 7 111 -5z m-19 -135 c14 -30 3 -43 -36
-43 -20 0 -22 4 -19 33 3 17 5 32 5 32 16 9 41 -2 50 -22z m169 -45 c-6 -20
-70 -48 -108 -48 -41 0 -87 27 -72 42 7 7 18 5 33 -6 31 -21 58 -20 89 4 28
22 64 27 58 8z"/>
<path d="M3668 1780 c-60 -117 -73 -150 -60 -150 11 0 25 20 41 55 l23 55 65
0 64 0 24 -54 c20 -45 29 -55 52 -58 25 -3 28 -7 29 -42 0 -22 5 -41 11 -43 7
-3 9 4 6 16 -3 12 2 32 11 46 16 25 19 25 146 25 142 0 160 -7 160 -61 0 -16
5 -29 10 -29 6 0 10 25 10 55 0 46 -3 55 -18 55 -14 0 -33 33 -79 133 -44 96
-65 133 -79 135 -16 2 -31 -22 -83 -133 -35 -74 -67 -135 -72 -135 -4 0 -14
-2 -21 -5 -10 -4 -34 36 -84 139 -38 80 -71 145 -74 145 -3 0 -40 -67 -82
-149z m457 -15 c27 -58 46 -107 43 -110 -3 -3 -48 -4 -100 -3 l-95 3 46 108
c25 59 48 107 52 107 3 0 28 -47 54 -105z m-365 55 c11 -21 20 -44 20 -50 0
-5 -20 -10 -45 -10 -25 0 -45 2 -45 5 0 7 43 95 47 95 1 0 12 -18 23 -40z"/>
<path d="M4395 1916 c-155 -44 -153 -248 4 -286 54 -13 130 -6 158 15 29 21 9
27 -33 9 -24 -10 -54 -14 -82 -11 -142 16 -148 236 -8 263 40 7 116 -10 116
-26 0 -6 5 -10 10 -10 16 0 12 37 -5 44 -36 13 -114 15 -160 2z"/>
<path d="M4955 1786 l-78 -148 -73 73 c-41 41 -74 77 -74 81 0 4 32 33 71 65
46 38 65 59 55 61 -9 2 -48 -25 -86 -60 -39 -35 -75 -64 -80 -66 -6 -2 -10 25
-10 62 0 62 -1 66 -22 66 -23 0 -23 -1 -23 -145 0 -144 0 -145 23 -145 21 0
22 4 22 70 0 39 4 70 9 70 5 0 37 -31 72 -70 58 -65 65 -70 103 -70 41 0 43 2
69 55 l27 55 60 0 60 0 27 -55 c21 -43 32 -55 50 -55 13 0 23 3 22 8 0 4 -33
72 -73 151 l-73 145 -78 -148z m91 32 c10 -24 20 -46 22 -50 2 -5 -20 -8 -48
-8 -28 0 -50 3 -48 8 20 46 44 92 49 92 4 0 15 -19 25 -42z"/>
<path d="M5464 1921 c-77 -19 -134 -84 -134 -152 0 -38 33 -90 73 -117 34 -22
51 -26 111 -26 83 0 127 20 163 74 46 68 19 165 -57 202 -43 21 -115 29 -156
19z m148 -49 c61 -60 45 -182 -27 -216 -106 -51 -215 24 -200 137 11 80 63
120 148 114 38 -3 56 -11 79 -35z"/>
<path d="M7726 1785 c-42 -81 -76 -148 -76 -151 0 -2 6 -4 14 -4 8 0 26 25 40
55 l25 55 64 0 65 0 22 -55 c18 -45 27 -55 46 -55 13 0 24 2 24 4 0 6 -138
287 -143 293 -3 2 -39 -62 -81 -142z m114 -17 c0 -5 -22 -8 -50 -8 -27 0 -50
2 -50 4 0 2 12 25 27 51 l26 48 23 -44 c13 -24 23 -47 24 -51z"/>
<path d="M3155 1775 c0 -144 0 -145 23 -145 22 0 22 2 22 136 l0 136 60 -4
c45 -3 60 -1 60 9 0 10 -21 13 -82 13 l-83 0 0 -145z"/>
<path d="M3367 1778 c2 -136 3 -143 23 -146 18 -3 20 2 20 61 l0 65 55 4 c72
6 109 32 113 80 2 29 -2 40 -24 57 -22 17 -40 21 -108 21 l-81 0 2 -142z m144
112 c13 -7 19 -21 19 -45 0 -42 -29 -65 -82 -65 l-38 0 0 60 0 60 41 0 c22 0
49 -5 60 -10z"/>
<path d="M5770 1915 c0 -3 -1 -67 -1 -142 0 -132 1 -138 20 -141 20 -3 21 1
21 133 l0 136 93 -3 92 -3 2 -130 c1 -124 2 -130 22 -133 20 -3 21 0 21 142
l0 146 -135 0 c-74 0 -135 -2 -135 -5z"/>
<path d="M6130 1775 l0 -145 223 0 222 0 0 145 c0 144 0 145 -22 145 -23 0
-23 -2 -23 -135 l0 -135 -81 0 -81 0 4 135 c3 134 3 135 -19 135 -23 0 -23 -2
-23 -135 l0 -135 -81 0 -81 0 4 135 c3 134 3 135 -19 135 -23 0 -23 -1 -23
-145z"/>
<path d="M6630 1910 c0 -5 23 -10 50 -10 l50 0 0 -135 0 -135 24 0 24 0 -6
109 c-2 60 -2 121 2 135 6 24 11 26 56 26 28 0 50 5 50 10 0 6 -48 10 -125 10
-77 0 -125 -4 -125 -10z"/>
<path d="M6935 1775 l0 -145 27 0 c24 0 40 18 120 131 l93 131 3 -131 c3 -128
3 -131 25 -131 22 0 22 2 22 145 l0 145 -27 0 c-29 0 -27 2 -162 -186 -47 -66
-49 -67 -58 -44 -6 14 -7 70 -4 128 6 101 6 102 -17 102 -22 0 -22 -1 -22
-145z"/>
<path d="M7317 1778 c2 -136 3 -143 23 -146 19 -3 20 2 20 72 l0 76 100 0 100
0 0 -75 c0 -68 2 -75 20 -75 19 0 20 7 20 145 0 138 -1 145 -20 145 -18 0 -20
-7 -20 -60 0 -67 9 -62 -100 -62 -109 0 -100 -5 -100 62 0 56 -2 60 -22 60
-23 0 -23 -1 -21 -142z"/>
<path d="M4067 1378 c-13 -24 -59 -110 -102 -193 -43 -82 -104 -201 -137 -262
l-60 -113 34 0 c33 0 34 2 90 120 l56 120 121 0 121 0 20 -32 c11 -18 37 -72
57 -120 l37 -88 92 0 91 0 7 42 c12 74 168 468 185 468 7 0 124 -278 177 -417
l32 -88 52 -3 51 -3 -17 33 c-10 18 -68 155 -130 303 l-112 270 -33 3 -34 3
-119 -281 c-65 -154 -125 -288 -132 -297 -11 -16 -31 19 -159 280 -81 163
-150 297 -155 297 -5 0 -20 -19 -33 -42z m57 -184 c25 -53 46 -101 46 -105 0
-5 -45 -9 -100 -9 -55 0 -100 3 -100 7 0 14 95 201 102 202 4 1 27 -42 52 -95z"/>
<path d="M5890 1128 c-69 -161 -126 -299 -128 -305 -2 -9 9 -13 35 -13 39 0
39 0 50 53 18 87 166 457 182 457 7 0 143 -321 182 -430 l27 -75 51 -3 52 -3
-17 33 c-10 18 -68 155 -130 303 l-112 270 -34 3 -33 3 -125 -293z"/>
<path d="M7080 1398 c-14 -33 -241 -561 -247 -575 -4 -9 7 -13 34 -13 39 0 40
0 51 50 18 79 169 460 182 460 4 0 13 -12 20 -27 31 -68 178 -431 184 -455 6
-27 8 -28 81 -28 l75 0 57 118 58 117 123 3 123 3 48 -103 c26 -57 51 -111 54
-120 5 -14 18 -18 58 -18 28 0 49 4 47 9 -21 58 -296 601 -303 601 -6 0 -60
-93 -119 -207 -201 -384 -198 -378 -212 -359 -7 10 -58 129 -114 264 -131 316
-124 302 -160 302 -22 0 -33 -6 -40 -22z m670 -205 c25 -53 47 -100 48 -105 4
-8 -191 -12 -200 -3 -5 5 94 205 102 205 3 0 26 -44 50 -97z"/>
<path d="M3121 1110 l0 -300 47 0 47 0 0 277 0 278 187 3 186 2 8 -87 c4 -49
4 -175 1 -280 l-6 -193 47 0 47 0 0 300 0 300 -282 0 -282 0 0 -300z"/>
<path d="M5075 1110 l-1 -300 56 0 55 0 64 93 c170 244 317 447 324 447 4 0 7
-121 7 -270 l0 -270 45 0 45 0 0 300 0 300 -58 0 -58 0 -89 -127 c-126 -183
-289 -402 -297 -403 -5 0 -8 119 -8 265 l0 265 -42 0 -43 0 0 -300z"/>
<path d="M6322 1403 c42 -81 170 -353 188 -397 23 -57 24 -58 57 -53 18 3 33
4 33 1 0 -14 -46 -93 -68 -116 l-26 -28 47 0 c43 0 47 2 53 28 8 31 218 506
240 539 20 31 18 33 -19 33 -33 0 -34 -2 -65 -82 -51 -133 -137 -321 -147
-325 -10 -3 -185 372 -185 396 0 7 -21 11 -56 11 -31 0 -54 -3 -52 -7z"/>
<path d="M1960 1088 c-30 -28 -41 -42 -25 -30 28 19 94 83 84 82 -2 -1 -29
-24 -59 -52z"/>
<path d="M2110 1095 c19 -19 36 -35 39 -35 3 0 -10 16 -29 35 -19 19 -36 35
-39 35 -3 0 10 -16 29 -35z"/>
<path d="M2021 1084 c0 -11 3 -14 6 -6 3 7 2 16 -1 19 -3 4 -6 -2 -5 -13z"/>
<path d="M1719 1013 c-13 -16 -12 -17 4 -4 16 13 21 21 13 21 -2 0 -10 -8 -17
-17z"/>
<path d="M1820 1000 c-9 -6 -10 -10 -3 -10 6 0 15 5 18 10 8 12 4 12 -15 0z"/>
<path d="M1457 939 c35 -35 45 -41 55 -31 11 11 10 12 -4 7 -10 -4 -18 -3 -18
3 0 5 -17 22 -37 37 l-38 28 42 -44z"/>
<path d="M2618 934 l-26 -27 -34 23 -33 22 28 -26 c15 -14 32 -26 36 -26 4 0
20 14 36 30 35 37 30 40 -7 4z"/>
<path d="M1508 812 c-21 -10 -38 -23 -38 -29 0 -17 4 -16 50 7 22 11 41 16 45
10 3 -5 -15 -18 -41 -29 -25 -11 -43 -25 -40 -30 5 -8 86 19 104 34 7 6 -22
55 -32 54 -6 0 -28 -8 -48 -17z"/>
<path d="M2530 823 c0 -4 8 -18 18 -29 32 -40 98 -61 85 -28 -4 10 1 22 11 29
9 7 14 15 9 18 -16 9 -123 18 -123 10z m76 -23 c8 0 14 -4 14 -10 0 -16 -36
-11 -51 7 -12 15 -12 16 4 10 10 -4 25 -7 33 -7z"/>
<path d="M2330 791 c0 -6 4 -13 10 -16 6 -3 7 1 4 9 -7 18 -14 21 -14 7z"/>
<path d="M1567 739 c-51 -8 -60 -19 -45 -52 7 -15 15 -27 19 -27 11 0 71 68
68 77 -2 5 -21 6 -42 2z m3 -24 c-7 -8 -20 -15 -29 -15 -13 1 -13 3 3 15 26
19 42 19 26 0z"/>
<path d="M1639 732 c14 -26 122 -127 151 -141 l25 -12 -25 18 c-14 9 -55 47
-93 84 -37 37 -63 60 -58 51z"/>
<path d="M2490 745 c0 -20 33 -63 55 -73 24 -11 27 -10 32 8 3 11 9 20 14 20
26 0 3 20 -38 34 -50 17 -63 19 -63 11z m60 -35 c8 -5 11 -12 7 -16 -4 -4 -15
0 -24 9 -18 18 -8 23 17 7z"/>
<path d="M2410 690 c-17 -22 -29 -40 -27 -40 3 0 20 18 37 40 17 22 29 40 27
40 -3 0 -20 -18 -37 -40z"/>
<path d="M1789 703 c-13 -16 -12 -17 4 -4 16 13 21 21 13 21 -2 0 -10 -8 -17
-17z"/>
<path d="M2340 706 c0 -2 8 -10 18 -17 15 -13 16 -12 3 4 -13 16 -21 21 -21
13z"/>
<path d="M1601 677 c-35 -12 -61 -41 -48 -53 3 -4 15 4 26 17 24 30 39 19 17
-13 -17 -24 -20 -38 -8 -38 14 1 64 82 56 90 -5 4 -24 3 -43 -3z"/>
<path d="M2451 669 c-12 -20 -10 -25 23 -57 19 -20 38 -33 42 -29 4 3 2 13 -5
20 -6 8 -9 21 -5 30 7 19 -12 57 -29 57 -7 0 -18 -10 -26 -21z m38 -25 c3 -16
1 -17 -13 -5 -19 16 -21 34 -3 29 6 -3 14 -13 16 -24z"/>
<path d="M2344 628 l-19 -23 23 19 c21 18 27 26 19 26 -2 0 -12 -10 -23 -22z"/>
<path d="M1642 607 c-31 -32 -41 -57 -23 -57 5 0 11 7 15 15 3 8 13 15 22 15
15 0 14 -4 -5 -24 -39 -41 -6 -37 34 4 36 37 44 68 10 40 -19 -15 -34 -5 -17
12 7 7 12 16 12 20 0 16 -17 7 -48 -25z"/>
<path d="M2385 610 c-19 -21 -18 -24 28 -77 33 -38 39 -14 7 25 -24 29 -27 38
-15 40 15 4 22 32 7 32 -5 0 -17 -9 -27 -20z"/>
<path d="M1719 557 c-19 -12 -35 -33 -37 -45 -5 -32 12 -27 25 8 6 17 16 30
22 30 8 0 6 -12 -4 -36 -18 -44 -18 -47 -4 -42 15 5 49 97 39 103 -4 2 -23 -6
-41 -18z"/>
<path d="M2070 572 c0 -6 -8 -13 -17 -15 -16 -4 -16 -5 -1 -6 18 -1 34 16 24
26 -3 4 -6 1 -6 -5z"/>
<path d="M2000 560 c-9 -6 -10 -10 -3 -10 6 0 15 5 18 10 8 12 4 12 -15 0z"/>
<path d="M2310 531 c0 -33 22 -61 50 -61 45 0 24 83 -23 88 -24 3 -27 0 -27
-27z m44 -7 c16 -16 21 -34 9 -34 -10 0 -43 32 -43 42 0 13 17 9 34 -8z"/>
<path d="M1785 513 c-4 -21 -12 -44 -17 -51 -6 -7 -8 -16 -4 -20 4 -4 12 2 18
13 6 11 22 30 35 43 13 13 21 27 17 31 -4 3 -9 0 -11 -6 -8 -22 -25 -14 -18 7
3 11 2 20 -3 20 -5 0 -13 -17 -17 -37z"/>
<path d="M2232 518 c-26 -26 -6 -83 32 -90 26 -4 32 18 6 25 -22 6 -27 23 -7
30 6 2 2 2 -10 0 -28 -4 -31 17 -3 24 11 3 20 9 20 14 0 13 -24 11 -38 -3z"/>
<path d="M1847 492 c-27 -28 -35 -66 -17 -77 6 -4 10 6 10 24 0 16 5 33 10 36
6 4 10 -10 10 -34 0 -23 5 -41 10 -41 6 0 10 27 10 60 0 33 -1 60 -3 60 -2 0
-15 -13 -30 -28z"/>
<path d="M2150 501 c-28 -8 -28 -8 -16 -68 8 -44 24 -53 55 -34 12 8 13 14 3
35 -6 14 -18 26 -27 26 -8 0 -15 7 -15 16 0 10 6 14 15 10 9 -3 15 0 15 9 0 8
-1 15 -2 14 -2 -1 -14 -4 -28 -8z m28 -79 c6 -18 -15 -14 -22 4 -4 10 -1 14 6
12 6 -2 14 -10 16 -16z"/>
<path d="M1922 467 c-28 -30 -29 -67 -2 -67 11 0 20 -4 20 -10 0 -5 5 -10 10
-10 6 0 10 25 10 55 0 30 -4 55 -8 55 -5 0 -18 -10 -30 -23z m9 -50 c-8 -8
-11 -5 -11 9 0 27 14 41 18 19 2 -9 -1 -22 -7 -28z"/>
<path d="M2032 443 c2 -10 10 -18 18 -18 22 0 18 29 -3 33 -14 3 -18 -1 -15
-15z"/>
</g>
</svg>
